<svg width="200" height="60" viewBox="0 0 200 60" fill="none" xmlns="http://www.w3.org/2000/svg">
  <!-- Cloud -->
  <path d="M25 20C25 20 22 15 17 15C12 15 9 18 9 23C9 23 6 23 6 26C6 29 9 31 12 31H28C28 31 32 31 32 27C32 23 28 23 28 23C28 18 25 20 25 20Z" fill="#1890FF"/>

  <!-- Phone -->
  <rect x="18" y="22" width="14" height="22" rx="2" fill="#FFF" stroke="#1890FF" stroke-width="1.5"/>
  <rect x="20" y="25" width="10" height="14" rx="0.5" fill="#E6F7FF"/>
  <circle cx="25" cy="41.5" r="1.5" fill="#1890FF"/>

  <!-- Signal waves -->
  <path d="M35 30C35 30 37 28 37 25C37 22 35 20 35 20" stroke="#1890FF" stroke-width="1.5" stroke-linecap="round"/>
  <path d="M38 32C38 32 41 29 41 25C41 21 38 18 38 18" stroke="#1890FF" stroke-width="1.5" stroke-linecap="round" opacity="0.6"/>

  <!-- Text -->
  <text x="50" y="30" font-family="Arial, sans-serif" font-size="18" font-weight="bold" fill="#1890FF">云手机平台</text>
  <text x="50" y="42" font-family="Arial, sans-serif" font-size="10" fill="#666">Cloud Phone Platform</text>
</svg>
