<svg width="300" height="200" viewBox="0 0 300 200" fill="none" xmlns="http://www.w3.org/2000/svg">
  <!-- Shadow -->
  <ellipse cx="150" cy="180" rx="80" ry="12" fill="#F0F0F0"/>

  <!-- Shopping bag -->
  <path d="M100 80L200 80L190 170L110 170L100 80Z" fill="#FFF" stroke="#D9D9D9" stroke-width="2"/>
  <path d="M100 80L200 80L195 100L105 100L100 80Z" fill="#FAFAFA" stroke="#D9D9D9" stroke-width="2"/>

  <!-- Handles -->
  <path d="M125 80C125 80 125 65 135 60C145 55 155 55 165 60C175 65 175 80 175 80" stroke="#D9D9D9" stroke-width="2" fill="none"/>

  <!-- Empty box icon inside -->
  <rect x="130" y="115" width="40" height="35" rx="2" fill="none" stroke="#BFBFBF" stroke-width="2"/>
  <line x1="130" y1="125" x2="170" y2="125" stroke="#BFBFBF" stroke-width="2"/>
  <line x1="145" y1="125" x2="155" y2="125" stroke="#FFF" stroke-width="3"/>

  <!-- Decoration dots -->
  <circle cx="120" cy="130" r="3" fill="#E8E8E8"/>
  <circle cx="180" cy="140" r="3" fill="#E8E8E8"/>

  <!-- Text -->
  <text x="150" y="195" font-family="Arial, sans-serif" font-size="14" fill="#8C8C8C" text-anchor="middle">暂无订单</text>
</svg>
